<svg xmlns="http://www.w3.org/2000/svg" viewBox="0 0 32 40" x="0px" y="0px"><title>Commucication</title><g data-name="Icon copy"><path d="M16,2A14,14,0,1,0,30,16,14.0158,14.0158,0,0,0,16,2Zm0,26A12,12,0,1,1,28,16,12.0137,12.0137,0,0,1,16,28Z"/><path d="M22,16.7832a1,1,0,0,0-1,1c0,1.8931-2.0635,3.4336-4.6,3.4336h-.8c-2.5366,0-4.6-1.54-4.6-3.4336a1,1,0,0,0-2,0c0,2.9961,2.9609,5.4336,6.6,5.4336h.8c3.6392,0,6.6-2.4375,6.6-5.4336A1,1,0,0,0,22,16.7832Z"/><path d="M11,14a1,1,0,0,0,1-1v-.5a.5.5,0,0,1,1,0V13a1,1,0,0,0,2,0v-.5a2.5,2.5,0,0,0-5,0V13A1,1,0,0,0,11,14Z"/><path d="M18,14a1,1,0,0,0,1-1v-.5a.5.5,0,0,1,1,0V13a1,1,0,0,0,2,0v-.5a2.5,2.5,0,0,0-5,0V13A1,1,0,0,0,18,14Z"/></g><text x="0" y="47" fill="#000000" font-size="5px" font-weight="bold" font-family="'Helvetica Neue', Helvetica, Arial-Unicode, Arial, Sans-serif">Created by Desainer Kanan</text><text x="0" y="52" fill="#000000" font-size="5px" font-weight="bold" font-family="'Helvetica Neue', Helvetica, Arial-Unicode, Arial, Sans-serif">from the Noun Project</text></svg>